<?xml version="1.0" encoding="UTF-8" standalone="no"?>
<!-- Created with Inkscape (http://www.inkscape.org/) -->

<svg
   xmlns:dc="http://purl.org/dc/elements/1.1/"
   xmlns:cc="http://creativecommons.org/ns#"
   xmlns:rdf="http://www.w3.org/1999/02/22-rdf-syntax-ns#"
   xmlns:svg="http://www.w3.org/2000/svg"
   xmlns="http://www.w3.org/2000/svg"
   xmlns:sodipodi="http://sodipodi.sourceforge.net/DTD/sodipodi-0.dtd"
   xmlns:inkscape="http://www.inkscape.org/namespaces/inkscape"
   width="100"
   height="100"
   id="svg2"
   version="1.1"
   inkscape:version="0.48.2 r9819"
   sodipodi:docname="New document 1">
  <defs
     id="defs4" />
  <sodipodi:namedview
     id="base"
     pagecolor="#ffffff"
     bordercolor="#666666"
     borderopacity="1.0"
     inkscape:pageopacity="0.0"
     inkscape:pageshadow="2"
     inkscape:zoom="5.6568542"
     inkscape:cx="38.07612"
     inkscape:cy="37.67133"
     inkscape:document-units="px"
     inkscape:current-layer="layer1"
     showgrid="false"
     inkscape:window-width="1920"
     inkscape:window-height="1138"
     inkscape:window-x="-8"
     inkscape:window-y="-8"
     inkscape:window-maximized="1" />
  <metadata
     id="metadata7">
    <rdf:RDF>
      <cc:Work
         rdf:about="">
        <dc:format>image/svg+xml</dc:format>
        <dc:type
           rdf:resource="http://purl.org/dc/dcmitype/StillImage" />
        <dc:title></dc:title>
      </cc:Work>
    </rdf:RDF>
  </metadata>
  <g
     inkscape:label="Layer 1"
     inkscape:groupmode="layer"
     id="layer1"
     transform="translate(0,-952.36218)">
    <path
       style="fill:#385691;fill-opacity:1;stroke:none"
       d="M 67 5 L 67 58.1875 C 80.36625 47.032976 88.497923 35.649666 92 30.1875 L 92 5 L 67 5 z M 37 35 L 37 76.90625 C 42.944174 74.195353 49.273478 70.823086 55.6875 66.59375 C 57.897499 65.136495 59.989049 63.639212 62 62.125 L 62 35 L 37 35 z M 92 64.34375 C 87.960897 67.601819 80.475136 71.984205 67 77.65625 L 67 95 L 92 95 L 92 64.34375 z M 7 65 L 7 86.625 C 12.329157 85.614183 21.322007 83.438988 32 79.0625 L 32 65 L 7 65 z M 62 79.65625 C 53.390671 82.882028 44.839773 84.944058 37 86.1875 L 37 95 L 62 95 L 62 79.65625 z M 32 86.875 C 21.238833 88.201928 12.309659 88.076029 7 87.8125 L 7 95 L 32 95 L 32 86.875 z "
       transform="translate(0,952.36218)"
       id="rect2985" />
  </g>
</svg>
